<svg id="Layer_1" data-name="Layer 1" xmlns="http://www.w3.org/2000/svg" viewBox="0 0 172 48"><defs><style>.cls-1{fill:#163659;}.cls-2{fill:none;stroke:#fff;stroke-linecap:round;stroke-linejoin:round;stroke-width:1.5px;}.cls-3{fill:#fff;}</style></defs><path class="cls-1" d="M0,36.58V11.43H18.28v5.75H8.55V22H16v5.53H8.55v9.06Z"/><path class="cls-1" d="M20.63,24.08c0-8.34,5.72-13,12.83-13s12.86,4.7,12.86,13S40.79,37,33.46,37,20.63,32.41,20.63,24.08Zm17,0c0-5-1.69-7.07-4.2-7.07s-4.2,2-4.2,7.07,1.68,7.08,4.2,7.08S37.66,29.14,37.66,24.11Z"/><path class="cls-1" d="M49.27,24.26C49.27,15.71,54.47,11,63.2,11a16.56,16.56,0,0,1,7.91,1.68v5.72H67.69a7.12,7.12,0,0,0-4.38-1.37c-3.52,0-5.35,1.87-5.35,7.15s1.29,7.22,4.24,7.22a7.19,7.19,0,0,0,2.08-.25V27.63H61.91V22.82H72.15V35A24.27,24.27,0,0,1,62.23,37C53.15,37,49.27,32.3,49.27,24.26Z"/><path class="cls-1" d="M77.16,36.58V11.43h8.55V36.58Z"/><path class="cls-1" d="M90.3,35V29.54h3.38a7,7,0,0,0,4.74,1.61c2,0,3.16-.54,3.16-1.69,0-1.47-1.37-1.65-4-2.22-4.59-1-7.4-2.73-7.4-8.09S94.36,11,100.36,11a17,17,0,0,1,8.08,1.76v5.31h-3.38a7.79,7.79,0,0,0-4.42-1.29c-2,0-2.94.5-2.94,1.58s1.11,1.51,3.55,2c6.44,1.3,8.37,3.45,8.37,8.23,0,5.21-3.73,8.33-10.84,8.33A16,16,0,0,1,90.3,35Z"/><circle class="cls-1" cx="148" cy="24" r="24"/><path class="cls-2" d="M139,16.94v14c0,1.4,2.9,2.6,6.8,2.9"/><ellipse class="cls-2" cx="148" cy="16.94" rx="9" ry="3"/><path class="cls-2" d="M144,26.64c-3-.5-5-1.5-5-2.7"/><path class="cls-3" d="M153.5,22.14a6.2,6.2,0,1,0,6.2,6.2A6.23,6.23,0,0,0,153.5,22.14Zm2.8,7h-2.1v2.1a.79.79,0,0,1-.8.8.74.74,0,0,1-.8-.8v-2.1h-2.1a.79.79,0,0,1-.8-.8.74.74,0,0,1,.8-.8h2.1v-2.1a.79.79,0,0,1,.8-.8.74.74,0,0,1,.8.8v2.1h2.1a.8.8,0,1,1,0,1.6Z"/></svg>